<?xml version="1.0" encoding="UTF-8"?><svg id="Layer_1" xmlns="http://www.w3.org/2000/svg" width="88.48" height="88.67" xmlns:xlink="http://www.w3.org/1999/xlink" viewBox="0 0 88.48 88.67"><defs><linearGradient id="linear-gradient" x1=".35" y1="44.3" x2="87.77" y2="44.3" gradientUnits="userSpaceOnUse"><stop offset="0" stop-color="#1e1e23"/><stop offset="1" stop-color="#000"/></linearGradient></defs><circle cx="44.06" cy="44.3" r="43.71" fill="url(#linear-gradient)"/><polygon points="44.06 2.6 38.83 8.53 49.29 8.53 44.06 2.6 38.83 8.53 49.29 8.53 44.06 2.6" fill="#30303a"/><polygon points="44.06 83.84 49.29 77.92 38.83 77.92 44.06 83.84 49.29 77.92 38.83 77.92 44.06 83.84" fill="#30303a"/><polygon points="85.54 44.3 79.61 39.07 79.61 49.53 85.54 44.3 79.61 39.07 79.61 49.53 85.54 44.3" fill="#30303a"/><polygon points="3.35 44.3 9.27 49.53 9.27 39.07 3.35 44.3 9.27 49.53 9.27 39.07 3.35 44.3" fill="#30303a"/></svg>