<?xml version="1.0" encoding="UTF-8"?><svg id="Layer_1" xmlns="http://www.w3.org/2000/svg" width="47.14" height="47.33" xmlns:xlink="http://www.w3.org/1999/xlink" viewBox="0 0 47.14 47.33"><defs><linearGradient id="linear-gradient" x1=".32" y1="23.72" x2="46.62" y2="23.72" gradientUnits="userSpaceOnUse"><stop offset="0" stop-color="#1e1e23"/><stop offset="1" stop-color="#000"/></linearGradient></defs><circle cx="23.47" cy="23.72" r="23.15" fill="url(#linear-gradient)"/><polygon points="23.26 45.26 26.03 42.12 20.48 42.12 23.26 45.26 26.03 42.12 20.48 42.12 23.26 45.26" fill="#30303a"/><polygon points="23.26 3.85 20.48 6.99 26.03 6.99 23.26 3.85 20.48 6.99 26.03 6.99 23.26 3.85" fill="#30303a"/><polygon points="45.53 24.21 42.39 21.43 42.39 26.98 45.53 24.21 42.39 21.43 42.39 26.98 45.53 24.21" fill="#30303a"/><polygon points="1.93 24.48 5.08 27.26 5.08 21.71 1.93 24.48 5.08 27.26 5.08 21.71 1.93 24.48" fill="#30303a"/></svg>