<?xml version="1.0" encoding="UTF-8"?><svg id="Layer_1" xmlns="http://www.w3.org/2000/svg" width="68.38" height="68.38" xmlns:xlink="http://www.w3.org/1999/xlink" viewBox="0 0 68.38 68.38"><defs><clipPath id="clippath"><circle cx="34.1" cy="34.29" r="33.71" fill="none"/></clipPath></defs><g clip-path="url(#clippath)"><rect x=".38" y=".57" width="0" height="67.43" fill="#141414"/><rect x=".38" y=".57" width="4.5" height="67.43" fill="#141414"/><rect x="4.88" y=".57" width="4.5" height="67.43" fill="#151515"/><rect x="9.37" y=".57" width="4.5" height="67.43" fill="#151516"/><rect x="13.87" y=".57" width="4.5" height="67.43" fill="#161617"/><rect x="18.36" y=".57" width="4.5" height="67.43" fill="#171718"/><rect x="22.86" y=".57" width="4.5" height="67.43" fill="#181819"/><rect x="27.35" y=".57" width="4.5" height="67.43" fill="#18181a"/><rect x="31.85" y=".57" width="4.5" height="67.43" fill="#19191c"/><rect x="36.34" y=".57" width="4.5" height="67.43" fill="#1a1a1d"/><rect x="40.84" y=".57" width="4.5" height="67.43" fill="#1a1a1e"/><rect x="45.33" y=".57" width="4.5" height="67.43" fill="#1b1b1f"/><rect x="49.83" y=".57" width="4.5" height="67.43" fill="#1c1c20"/><rect x="54.32" y=".57" width="4.5" height="67.43" fill="#1d1d21"/><rect x="58.82" y=".57" width="4.5" height="67.43" fill="#1d1d22"/><rect x="63.31" y=".57" width="4.5" height="67.43" fill="#1e1e23"/><rect x="67.81" y=".57" width="0" height="67.43" fill="#1e1e23"/></g><circle cx="34.1" cy="34.86" r="27.43" fill="#32323f"/><path d="M34.1,62.77c-7.15,0-14.3-2.72-19.75-8.17-10.89-10.89-10.89-28.61,0-39.5h0c10.89-10.89,28.61-10.89,39.5,0,5.28,5.28,8.18,12.29,8.18,19.75s-2.91,14.47-8.18,19.75c-5.44,5.44-12.6,8.17-19.75,8.17ZM15.05,15.82h0c-10.5,10.5-10.5,27.58,0,38.08,5.09,5.09,11.85,7.89,19.04,7.89s13.96-2.8,19.04-7.89c5.09-5.09,7.89-11.85,7.89-19.04s-2.8-13.96-7.89-19.04-11.85-7.89-19.04-7.89-13.96,2.8-19.04,7.89Z" fill="#be201f"/></svg>